<svg width="23" height="22" viewBox="0 0 23 22" fill="none" xmlns="http://www.w3.org/2000/svg">
<path d="M11.5029 0H11.4971C5.15633 0 1.50893e-05 4.9335 1.50893e-05 11C-0.00392237 13.3169 0.762823 15.5749 2.18933 17.4474L0.75614 21.5339L5.17645 20.1823C7.05149 21.3721 9.25274 22.0046 11.5029 22C17.8437 22 23 17.0651 23 11C23 4.93488 17.8437 0 11.5029 0V0ZM18.1945 15.5334C17.917 16.2827 16.8159 16.9042 15.9376 17.0857C15.3367 17.2081 14.5518 17.3058 11.9097 16.258C8.53014 14.9188 6.35377 11.6339 6.18414 11.4207C6.0217 11.2076 4.81852 9.68138 4.81852 8.10288C4.81852 6.52438 5.65658 5.75575 5.99439 5.42575C6.27183 5.15488 6.73039 5.03112 7.17026 5.03112C7.31258 5.03112 7.44052 5.038 7.55552 5.0435C7.89333 5.05725 8.06295 5.0765 8.28576 5.58663C8.5632 6.226 9.23883 7.8045 9.31933 7.96675C9.40126 8.129 9.4832 8.349 9.3682 8.56213C9.26039 8.78213 9.16551 8.87975 8.99589 9.06675C8.82626 9.25375 8.66526 9.39675 8.49564 9.5975C8.34039 9.77213 8.16502 9.95913 8.36052 10.2823C8.55602 10.5985 9.23164 11.6531 10.2264 12.5001C11.5101 13.5932 12.5508 13.9425 12.9231 14.091C13.2006 14.201 13.5312 14.1749 13.7339 13.9686C13.9912 13.7033 14.3089 13.2633 14.6323 12.8301C14.8623 12.5194 15.1527 12.4809 15.4575 12.5909C15.768 12.694 17.411 13.4709 17.7488 13.6317C18.0866 13.794 18.3095 13.871 18.3914 14.0071C18.4719 14.1433 18.4719 14.7826 18.1945 15.5334V15.5334Z" fill="black"/>
</svg>
